{"title":"Sex Tape 2014 CAM Xvid Mp3-MiLLENiUM","uid":10656884,"size":1232197070,"categoryP":"video","categoryS":"movies","magnet":"?xt=urn:btih:b4f3d91f6413145361bcb038d64f508e0f905ab2&amp;dn=Sex+Tape+2014+CAM+Xvid+Mp3-MiLLENiUM&amp;tr=udp%3A%2F%2Ftracker.openbittorrent.com%3A80&amp;tr=udp%3A%2F%2Fopen.demonii.com%3A1337&amp;tr=udp%3A%2F%2Ftracker.coppersurfer.tk%3A6969&amp;tr=udp%3A%2F%2Fexodus.desync.com%3A6969","seeders":3,"leechers":0,"uploader":"lokioddin","files":4,"time":1406675714,"description":"SilverTorrent - Clean And Verified Torrents Download\n\n\n\nSex Tape 2014 Cam Xvid Mp3-MiLLENiUM\n\nGeneral &lt;a href=&quot;\nhttp://www.imdb.com/title/tt1956620/&quot; rel=&quot;nofollow&quot; target=&quot;_NEW&quot;&gt;\nhttp://www.imdb.com/title/tt1956620/&lt;/a&gt;\nComplete name                            : Sex Tape 2014 Cam Xvid Mp3-MiLLENiUM.avi\nsource                                   : A friend [thanks!! ]d\nFormat                                   : AVI\nFormat/Info                              : Audio Video Interleave\nFile size                                : 1.09 GiB\nDuration                                 : 1h 30mn\nOverall bit rate                         : 1 737 Kbps\nWriting application                      : VirtualDubMod 1.5.10.2 (build 2540/release)\nWriting library                          : VirtualDubMod build 2540/release\n\nVideo\nID                                       : 0\nFormat                                   : MPEG-4 Visual\nFormat profile                           : Advanced Simple@L5\nFormat settings, BVOP                    : 2\nFormat settings, QPel                    : Yes\nFormat settings, GMC                     : No warppoints\nFormat settings, Matrix                  : Default (MPEG)\nCodec ID                                 : XVID\nCodec ID/Hint                            : XviD\nDuration                                 : 1h 30mn\nBit rate                                 : 1 600 Kbps\nWidth                                    : 720 pixels\nHeight                                   : 348 pixels\nDisplay aspect ratio                     : 2.069\nFrame rate                               : 23.976 fps\nColor space                              : YUV\nChroma subsampling                       : 4:2:0\nBit depth                                : 8 bits\nScan type                                : Progressive\nCompression mode                         : Lossy\nBits/(Pixel*Frame)                       : 0.266\nStream size                              : 1.01 GiB (92%)\nWriting library                          : XviD 1.2.1 (UTC 2008-12-04)\n\nAudio\nID                                       : 1\nFormat                                   : MPEG Audio\nFormat version                           : Version 1\nFormat profile                           : Layer 3\nMode                                     : Joint stereo\nMode extension                           : MS Stereo\nCodec ID                                 : 55\nCodec ID/Hint                            : MP3\nDuration                                 : 1h 30mn\nBit rate mode                            : Constant\nBit rate                                 : 128 Kbps\nChannel(s)                               : 2 channels\nSampling rate                            : 48.0 KHz\nCompression mode                         : Lossy\nStream size                              : 82.6 MiB (7%)\nAlignment                                : Aligned on interleaves\nInterleave, duration                     : 42 ms (1.00 video frame)\n &lt;a href=&quot;\nhttp://s29.postimg.org/ttz86gn3b/Sex_Tape_2014_Cam_Xvid_Mp3_Mi_LLENi_UM_avi_snapsho.png&quot; rel=&quot;nofollow&quot; target=&quot;_NEW&quot;&gt;\nhttp://s29.postimg.org/ttz86gn3b/Sex_Tape_2014_Cam_Xvid_Mp3_Mi_LLENi_UM_avi_snapsho.png&lt;/a&gt;\n &lt;a href=&quot;\nhttp://s29.postimg.org/6ehb143c7/Sex_Tape_2014_Cam_Xvid_Mp3_Mi_LLENi_UM_avi_snapsho.png&quot; rel=&quot;nofollow&quot; target=&quot;_NEW&quot;&gt;\nhttp://s29.postimg.org/6ehb143c7/Sex_Tape_2014_Cam_Xvid_Mp3_Mi_LLENi_UM_avi_snapsho.png&lt;/a&gt;\n &lt;a href=&quot;\nhttp://s29.postimg.org/yd6ve8fl3/Sex_Tape_2014_Cam_Xvid_Mp3_Mi_LLENi_UM_avi_snapsho.png&quot; rel=&quot;nofollow&quot; target=&quot;_NEW&quot;&gt;\nhttp://s29.postimg.org/yd6ve8fl3/Sex_Tape_2014_Cam_Xvid_Mp3_Mi_LLENi_UM_avi_snapsho.png&lt;/a&gt;\n &lt;a href=&quot;\nhttp://s29.postimg.org/saz8nqr53/Sex_Tape_2014_Cam_Xvid_Mp3_Mi_LLENi_UM_avi_snapsho.png&quot; rel=&quot;nofollow&quot; target=&quot;_NEW&quot;&gt;\nhttp://s29.postimg.org/saz8nqr53/Sex_Tape_2014_Cam_Xvid_Mp3_Mi_LLENi_UM_avi_snapsho.png&lt;/a&gt;\n\nSilverTorrent - Clean And Verified Torrents Download\n\n","torrent":{"xt":"urn:btih:b4f3d91f6413145361bcb038d64f508e0f905ab2","amp;dn":"Sex+Tape+2014+CAM+Xvid+Mp3-MiLLENiUM","amp;tr":["udp%3A%2F%2Ftracker.openbittorrent.com%3A80","udp%3A%2F%2Fopen.demonii.com%3A1337","udp%3A%2F%2Ftracker.coppersurfer.tk%3A6969","udp%3A%2F%2Fexodus.desync.com%3A6969"],"infoHash":"b4f3d91f6413145361bcb038d64f508e0f905ab2","infoHashBuffer":{"type":"Buffer","data":[180,243,217,31,100,19,20,83,97,188,176,56,214,79,80,142,15,144,90,178]},"announce":[],"urlList":[]}}